HIERARCHY
ROOT hip
{
	OFFSET 0.000000 0.000000 0.000000
	CHANNELS 6 Xposition Yposition Zposition Xrotation Zrotation Yrotation 
	JOINT abdomen
	{
		OFFSET 0.000000 3.422050 0.000000
		CHANNELS 3 Xrotation Zrotation Yrotation 
		JOINT chest
		{
			OFFSET 0.000000 8.486693 -0.684411
			CHANNELS 3 Xrotation Zrotation Yrotation 
			JOINT neck
			{
				OFFSET 0.000000 10.266162 -0.273764
				CHANNELS 3 Xrotation Zrotation Yrotation 
				JOINT head
				{
					OFFSET 0.000000 3.148285 0.000000
					CHANNELS 3 Xrotation Zrotation Yrotation 
					End Site
					{
						OFFSET 0.000000 3.148289 0.000000
					}
				}
			}
			JOINT lCollar
			{
				OFFSET 3.422053 6.707223 -0.821293
				CHANNELS 3 Yrotation Zrotation Xrotation 
				JOINT lShldr
				{
					OFFSET 3.285171 0.000000 0.000000
					CHANNELS 3 Zrotation Yrotation Xrotation 
					JOINT lForeArm
					{
						OFFSET 10.129278 0.000000 0.000000
						CHANNELS 3 Yrotation Zrotation Xrotation 
						JOINT lHand
						{
							OFFSET 8.486692 0.000000 0.000000
							CHANNELS 3 Zrotation Yrotation Xrotation 
							End Site
							{
								OFFSET 4.106464 0.000000 0.000000
							}
						}
					}
				}
			}
			JOINT rCollar
			{
				OFFSET -3.558935 6.707223 -0.821293
				CHANNELS 3 Yrotation Zrotation Xrotation 
				JOINT rShldr
				{
					OFFSET -3.148289 0.000000 0.000000
					CHANNELS 3 Zrotation Yrotation Xrotation 
					JOINT rForeArm
					{
						OFFSET -10.266159 0.000000 0.000000
						CHANNELS 3 Yrotation Zrotation Xrotation 
						JOINT rHand
						{
							OFFSET -8.349810 0.000000 0.000000
							CHANNELS 3 Zrotation Yrotation Xrotation 
							End Site
							{
								OFFSET -4.106464 0.000000 0.000000
							}
						}
					}
				}
			}
		}
	}
	JOINT lThigh
	{
		OFFSET 5.338403 -1.642589 1.368821
		CHANNELS 3 Xrotation Zrotation Yrotation 
		JOINT lShin
		{
			OFFSET -2.053232 -20.121670 0.000000
			CHANNELS 3 Xrotation Zrotation Yrotation 
			JOINT lFoot
			{
				OFFSET 0.000000 -19.300380 -1.231939
				CHANNELS 3 Xrotation Yrotation Zrotation 
				End Site
				{
					OFFSET 0.000000 -2.463878 4.653993
				}
			}
		}
	}
	JOINT rThigh
	{
		OFFSET -5.338403 -1.642589 1.368821
		CHANNELS 3 Xrotation Zrotation Yrotation 
		JOINT rShin
		{
			OFFSET 2.053232 -20.121670 0.000000
			CHANNELS 3 Xrotation Zrotation Yrotation 
			JOINT rFoot
			{
				OFFSET 0.000000 -19.300380 -1.231939
				CHANNELS 3 Xrotation Yrotation Zrotation 
				End Site
				{
					OFFSET 0.000000 -2.463878 4.653993
				}
			}
		}
	}
}
MOTION
Frames: 10
Frame Time: 0.049897
0.000000 43.528500 0.000000 0.000000 0.000000 0.000000 0.000000 0.000000 0.000000 0.000000 0.000000 0.000000 0.000000 0.000000 0.000000 0.000000 0.000000 0.000000 0.000000 0.000000 0.000000 0.000000 0.000000 0.000000 0.000000 0.000000 0.000000 0.000000 0.000000 0.000000 0.000000 0.000000 0.000000 0.000000 0.000000 0.000000 0.000000 0.000000 0.000000 0.000000 0.000000 0.000000 0.000000 0.000000 0.000000 0.000000 0.000000 0.000000 0.000000 0.000000 0.000000 0.000000 0.000000 0.000000 0.000000 0.000000 0.000000 0.000000 0.000000 0.000000 
19.995884 22.186924 12.708813 104.995247 0.003193 -179.995834 8.826688 -0.012203 -0.000942 12.107879 -0.604925 0.514360 15.993459 0.000000 0.000000 3.992749 0.000000 0.000000 1.487038 -20.555222 -0.610075 -5.588790 -1.863470 -12.754026 -11.164666 -45.629120 76.422272 -7.491924 6.095546 9.951963 -1.016464 21.265465 -0.849995 5.317006 1.675416 -12.775974 11.131433 45.210049 76.438789 7.641166 -5.909118 10.111536 26.559416 33.020477 48.386398 55.767342 43.389416 -16.720148 9.036388 -15.013897 -26.960945 26.785288 -32.050995 -48.159573 54.251781 -44.033058 17.841591 9.452588 14.040661 28.030411 
19.995884 22.186924 12.708813 104.993195 0.003192 -179.995834 8.825918 -0.012466 -0.001110 12.828725 -0.604838 0.514241 15.911211 -0.024014 0.464568 3.764973 0.000000 0.000000 1.221390 -20.416689 -0.785575 -5.588790 -1.863470 -12.754026 -11.155322 -45.607170 76.429047 -7.049531 6.028926 9.576384 -0.776088 21.086229 -1.013323 5.317006 1.675416 -12.775974 11.131433 45.210049 76.438789 7.189864 -5.851942 9.726567 26.591606 33.312065 48.817638 55.767342 43.389416 -16.720148 9.066751 -15.399768 -26.574924 26.809292 -32.481304 -48.690361 54.410160 -43.908443 17.719072 9.457212 14.577951 27.477295 
19.995884 22.186924 12.708813 104.993195 0.003192 -179.995834 8.825150 -0.012729 -0.001278 13.550031 -0.604750 0.514123 15.828675 -0.047388 0.929720 3.537136 0.000000 0.000000 0.956406 -20.277378 -0.960250 -5.588790 -1.863470 -12.754026 -11.145980 -45.585213 76.435791 -6.606558 5.965165 9.200171 -0.536523 20.906340 -1.175667 5.317006 1.675416 -12.775973 11.131429 45.210045 76.438789 6.738011 -5.797760 9.341006 26.626535 33.603523 49.250629 55.767353 43.389420 -16.720148 9.099882 -15.785571 -26.187832 26.838169 -32.911640 -49.224209 54.567837 -43.783569 17.597273 9.467228 15.115565 26.922361 
19.995884 22.186924 12.708813 104.993195 0.003192 -179.995834 8.824382 -0.012992 -0.001446 14.271737 -0.604661 0.514006 15.745861 -0.070117 1.395438 3.309238 0.000000 0.000000 0.692089 -20.137297 -1.134097 -5.588790 -1.863470 -12.754027 -11.136646 -45.563255 76.442551 -6.163046 5.904277 8.823365 -0.297769 20.725801 -1.337025 5.317005 1.675416 -12.775973 11.131435 45.210045 76.438782 6.285656 -5.746584 8.954906 26.664249 33.894836 49.685436 55.767342 43.389416 -16.720148 9.135803 -16.171272 -25.799635 26.872015 -33.341938 -49.761219 54.724823 -43.658455 17.476200 9.482693 15.653404 26.365543 
19.995884 22.186924 12.708813 104.993195 0.003192 -179.995834 8.823613 -0.013255 -0.001614 14.993782 -0.604569 0.513890 15.662769 -0.092196 1.861709 3.081282 0.000000 0.000000 0.428441 -19.996458 -1.307112 -5.588789 -1.863470 -12.754025 -11.127321 -45.541302 76.449287 -5.719034 5.846271 8.446003 -0.059822 20.544615 -1.497400 5.317006 1.675416 -12.775974 11.131433 45.210049 76.438789 5.832842 -5.698426 8.568302 26.704781 34.185966 50.122082 55.767342 43.389416 -16.720148 9.174531 -16.556828 -25.410311 26.910879 -33.772118 -50.301414 54.881123 -43.533100 17.355852 9.503649 16.191364 25.806776 
19.995884 22.186924 12.708813 104.993217 0.003192 -179.995834 8.822846 -0.013518 -0.001782 15.716122 -0.604477 0.513776 15.579411 -0.113621 2.328515 2.853271 0.000000 0.000000 0.165464 -19.854868 -1.479293 -5.588789 -1.863470 -12.754026 -11.118004 -45.519341 76.456017 -5.274565 5.791163 8.068132 0.177317 20.362806 -1.656793 5.317006 1.675416 -12.775974 11.131430 45.210045 76.438789 5.379614 -5.653299 8.181250 26.748146 34.476891 50.560570 55.767342 43.389416 -16.720148 9.216086 -16.942211 -25.019836 26.954870 -34.202137 -50.844910 55.036732 -43.407494 17.236216 9.530154 16.729343 25.245991 
19.995884 22.186924 12.708813 104.993195 0.003192 -179.995834 8.822078 -0.013781 -0.001950 16.438690 -0.604383 0.513662 15.495795 -0.134387 2.795841 2.625204 0.000000 0.000000 -0.096840 -19.712526 -1.650638 -5.588790 -1.863470 -12.754026 -11.108690 -45.497383 76.462746 -4.829678 5.738962 7.689791 0.413651 20.180370 -1.815204 5.317006 1.675416 -12.775974 11.131433 45.210049 76.438789 4.926015 -5.611212 7.793785 26.794386 34.767578 51.000946 55.767349 43.389416 -16.720146 9.260487 -17.327385 -24.628197 27.004061 -34.631908 -51.391758 55.191666 -43.281658 17.117302 9.562263 17.267246 24.683132 
19.995884 22.186924 12.708813 104.993195 0.003192 -179.995834 8.821308 -0.014044 -0.002118 17.161430 -0.604288 0.513550 15.411927 -0.154491 3.263671 2.397086 0.000000 0.000000 -0.358468 -19.569443 -1.821144 -5.588790 -1.863470 -12.754026 -11.099395 -45.475430 76.469467 -4.384419 5.689678 7.311024 0.649182 19.997318 -1.972635 5.317006 1.675416 -12.775974 11.131433 45.210049 76.438789 4.472090 -5.572171 7.405954 26.843515 35.057991 51.443211 55.767342 43.389416 -16.720148 9.307750 -17.712313 -24.235359 27.058521 -35.061348 -51.942024 55.345917 -43.155586 16.999090 9.600025 17.804962 24.118124 
19.995884 22.186924 12.708813 104.993195 0.003192 -179.995834 8.820540 -0.014307 -0.002286 17.884287 -0.604191 0.513439 15.327812 -0.173927 3.731987 2.168916 0.000000 0.000000 -0.619418 -19.425623 -1.990809 -5.588789 -1.863470 -12.754025 -11.090091 -45.453465 76.476173 -3.938828 5.643321 6.931871 0.883910 19.813654 -2.129086 5.317006 1.675416 -12.775975 11.131433 45.210049 76.438789 4.017885 -5.536186 7.017803 26.895580 35.348118 51.887409 55.767334 43.389412 -16.720146 9.357897 -18.096954 -23.841299 27.118357 -35.490425 -52.495819 55.499519 -43.029293 16.881598 9.643498 18.342402 23.550919 
